<svg id="Layer_1" data-name="Layer 1" xmlns="http://www.w3.org/2000/svg" viewBox="0 0 370 300"><defs><style>.cls-1{fill:#e2e2e2;}.cls-2,.cls-3{fill:#69a0ef;}.cls-3,.cls-4{stroke:#69a0ef;stroke-miterlimit:10;}.cls-4{fill:none;stroke-width:2px;}.cls-5{fill:#fff;}</style></defs><title>dashboard-design-section-banner</title><path class="cls-1" d="M193.47,143.25a36,36,0,1,1-36,36,36,36,0,0,1,36-36m0-2a38,38,0,1,0,38,38,38,38,0,0,0-38-38Z"/><path class="cls-1" d="M127.16,61.75a30,30,0,1,1-30,30,30,30,0,0,1,30-30m0-2a32,32,0,1,0,32,32,32,32,0,0,0-32-32Z"/><path class="cls-1" d="M102.16,157.63a51.31,51.31,0,1,1-51.31,51.31,51.37,51.37,0,0,1,51.31-51.31m0-2a53.31,53.31,0,1,0,53.31,53.31,53.31,53.31,0,0,0-53.31-53.31Z"/><path class="cls-1" d="M285.16,165.25a34,34,0,1,1-34,34,34,34,0,0,1,34-34m0-2a36,36,0,1,0,36,36,36,36,0,0,0-36-36Z"/><path class="cls-1" d="M249.16,39.75a52,52,0,1,1-52,52,52.06,52.06,0,0,1,52-52m0-2a54,54,0,1,0,54,54,54,54,0,0,0-54-54Z"/><circle class="cls-2" cx="249.37" cy="67.38" r="18.35"/><path class="cls-2" d="M276.9,123.48H221.41a3,3,0,0,1-3-3.38,30.81,30.81,0,0,1,6.7-16.08q.8-1,1.68-1.9a30.91,30.91,0,0,1,44.75,0q.88.92,1.68,1.9a30.81,30.81,0,0,1,6.7,16.08A3,3,0,0,1,276.9,123.48Z"/><path class="cls-2" d="M293.07,215.73q1,.61,1,1.19,0,1.38-3.33,5.44-4.48,5.52-8.32,5.52-2.8,0-2.8-3.71,0-1.57,1.15-9.65l1.49-10.41.38-2.64.31-2.11a16.46,16.46,0,0,0,.19-2.26q0-1.91-1.07-1.91-3,0-6.41,6.55a1.81,1.81,0,0,1-.72-1.3q0-2.34,4.31-6.29t6.88-3.95q2.87,0,2.87,4a31.32,31.32,0,0,1-.31,3.14l-.34,2.57q0,.31-.42,3.1l-1.57,11-.38,2.45a44.73,44.73,0,0,0-.5,4.86q0,1.65,1,1.65Q289.67,222.9,293.07,215.73Zm-7.67-30.47,3.22-7.93a18.81,18.81,0,0,0,7.05-4.87,1.89,1.89,0,0,1,.38,1.11Q296.05,178.71,285.4,185.26Z"/><circle class="cls-3" cx="171.59" cy="197.32" r="2.22" transform="translate(-64.91 85.76) rotate(-23.74)"/><circle class="cls-3" cx="176.44" cy="183.84" r="2.22" transform="translate(-59.08 86.57) rotate(-23.74)"/><circle class="cls-3" cx="188.62" cy="188.85" r="2.22" transform="translate(-60.06 91.9) rotate(-23.74)"/><circle class="cls-3" cx="193.73" cy="174.95" r="2.22" transform="translate(-54.04 92.78) rotate(-23.74)"/><circle class="cls-3" cx="206.05" cy="177.3" r="2.22" transform="translate(-53.94 97.94) rotate(-23.74)"/><circle class="cls-3" cx="214.65" cy="161.18" r="2.22" transform="translate(-46.72 100.04) rotate(-23.74)"/><polyline class="cls-4" points="214.65 161.18 206.05 177.3 193.72 174.94 188.61 188.85 176.42 183.8 171.59 197.32"/><path class="cls-2" d="M112.81,72h21l9.63,9.79v27.71a2,2,0,0,1-2,2H112.81a2,2,0,0,1-2-2V74A2,2,0,0,1,112.81,72Z"/><path class="cls-2" d="M136.82,82.25a3.57,3.57,0,0,1-3.56-3.56V70.74l11.32,11.51Z"/><path class="cls-5" d="M133.76,72l5.65,5.75,4,4h-6.56a3.06,3.06,0,0,1-3.06-3.06V72m-1-2.44v9.17a4.07,4.07,0,0,0,4.06,4.06h9l-1.67-1.7-4-4-5.65-5.75-1.71-1.74Z"/><path class="cls-2" d="M142.31,224a12.37,12.37,0,0,1-12.37,12.37H82.27a20.26,20.26,0,0,1,0-40.53l.81,0a20.33,20.33,0,0,1,39,.43,10.79,10.79,0,0,1,3.09-.45,10.92,10.92,0,0,1,9.3,16.65A12.37,12.37,0,0,1,142.31,224Z"/></svg>