<svg id="Layer_1" data-name="Layer 1" xmlns="http://www.w3.org/2000/svg" viewBox="0 0 200 200"><defs><style>.cls-1{fill:#e2e2e2;}.cls-2{fill:#5290e9;}</style></defs><title>dashboard-design-icon</title><path class="cls-1" d="M100,4A96,96,0,1,1,4,100,96.11,96.11,0,0,1,100,4m0-4A100,100,0,1,0,200,100,100,100,0,0,0,100,0Z"/><path class="cls-2" d="M166.68,112.22A66.71,66.71,0,1,1,100,42.91V57.15A52.47,52.47,0,1,0,152.44,112a2.49,2.49,0,0,1,2.49-2.38h9.25A2.51,2.51,0,0,1,166.68,112.22Z"/><path class="cls-2" d="M131.32,54.37l-45.06,26a2.5,2.5,0,0,1-3.75-2.17v-52A2.5,2.5,0,0,1,86.25,24l45.06,26A2.5,2.5,0,0,1,131.32,54.37Z"/></svg>